<svg xmlns="http://www.w3.org/2000/svg" xmlns:xlink="http://www.w3.org/1999/xlink" width="800" zoomAndPan="magnify" viewBox="0 0 600 149.999998" height="200" preserveAspectRatio="xMidYMid meet" version="1.0"><defs><g/><clipPath id="81efa95a92"><path d="M 20 55 L 103 55 L 103 121.960938 L 20 121.960938 Z M 20 55 " clip-rule="nonzero"/></clipPath><clipPath id="499ebcae01"><path d="M 28 28.210938 L 113.480469 28.210938 L 113.480469 118 L 28 118 Z M 28 28.210938 " clip-rule="nonzero"/></clipPath></defs><g clip-path="url(#81efa95a92)"><path fill="#f7941d" d="M 22.824219 55.996094 C 22.863281 55.929688 22.945312 55.898438 23.019531 55.925781 C 23.089844 55.953125 23.132812 56.027344 23.117188 56.101562 C 22.539062 59.109375 22.335938 62.335938 22.511719 65.789062 L 22.511719 65.792969 C 22.628906 70.15625 23.824219 74.515625 26.101562 78.871094 L 26.101562 78.875 C 28.050781 82.847656 30.800781 86.515625 34.355469 89.871094 C 35.625 91.097656 37.398438 92.472656 39.664062 93.992188 L 39.671875 93.996094 C 40.996094 94.996094 43.613281 96.285156 47.527344 97.859375 C 58.191406 101.058594 67.527344 100.539062 75.53125 96.308594 C 75.578125 96.28125 75.636719 96.28125 75.683594 96.3125 C 75.730469 96.335938 75.757812 96.382812 75.761719 96.4375 C 75.765625 96.46875 75.757812 96.5 75.742188 96.527344 C 75.730469 96.542969 75.71875 96.558594 75.703125 96.574219 C 71.417969 100.0625 66.617188 102.355469 61.3125 103.453125 L 61.308594 103.453125 C 55.539062 104.5 50.402344 104.3125 45.902344 102.894531 C 43.863281 102.503906 41.078125 101.472656 37.546875 99.804688 L 37.539062 99.800781 C 35.890625 98.902344 34.324219 97.886719 32.839844 96.761719 C 28.582031 93.527344 25.238281 89.207031 22.804688 83.808594 C 20.652344 78.867188 19.75 73.488281 20.097656 67.660156 C 20.140625 65.875 20.667969 63.082031 21.671875 59.292969 C 21.875 58.484375 22.257812 57.390625 22.816406 56.019531 Z M 80.863281 56.175781 C 80.816406 56.25 80.84375 56.34375 80.914062 56.390625 C 88.597656 61.171875 93.714844 68.957031 96.261719 79.75 C 96.847656 83.902344 97.035156 86.796875 96.828125 88.4375 L 96.828125 88.445312 C 96.636719 91.160156 96.324219 93.371094 95.894531 95.078125 C 94.957031 98.957031 93.570312 102.476562 91.734375 105.636719 C 91.328125 106.339844 90.898438 107.019531 90.449219 107.6875 L 90.445312 107.691406 C 87.792969 111.828125 84.597656 115.042969 80.859375 117.324219 L 80.855469 117.328125 C 77.9375 119.203125 75.027344 120.644531 72.125 121.648438 C 72.085938 121.660156 72.058594 121.6875 72.039062 121.71875 C 72.007812 121.769531 72.007812 121.835938 72.046875 121.882812 C 72.078125 121.9375 72.140625 121.960938 72.199219 121.949219 C 73.667969 121.746094 74.808594 121.527344 75.617188 121.300781 C 79.421875 120.269531 82.113281 119.328125 83.691406 118.472656 C 88.9375 115.859375 93.171875 112.386719 96.382812 108.066406 C 97.171875 106.980469 97.886719 105.878906 98.53125 104.769531 C 100.734375 100.972656 102.105469 97.027344 102.640625 92.941406 C 102.875 91.097656 102.976562 89.242188 102.9375 87.371094 L 102.9375 87.359375 C 102.625 83.492188 102.128906 80.582031 101.453125 78.632812 C 100.445312 74.042969 98.035156 69.515625 94.234375 65.058594 L 94.230469 65.054688 C 90.625 61.03125 86.234375 58.046875 81.058594 56.09375 C 80.980469 56.082031 80.898438 56.109375 80.863281 56.175781 Z M 80.863281 56.175781 " fill-opacity="1" fill-rule="nonzero"/></g><g clip-path="url(#499ebcae01)"><path fill="#d11930" d="M 28.363281 102.996094 C 28.410156 102.921875 28.503906 102.894531 28.582031 102.9375 L 28.609375 102.957031 C 30.933594 104.953125 33.640625 106.742188 36.730469 108.320312 L 36.734375 108.320312 C 40.59375 110.402344 44.984375 111.550781 49.914062 111.761719 L 49.917969 111.761719 C 54.351562 112.070312 58.917969 111.53125 63.617188 110.152344 C 65.320312 109.667969 67.398438 108.832031 69.859375 107.640625 L 69.863281 107.636719 C 71.398438 106.996094 73.824219 105.382812 77.152344 102.800781 C 80.648438 99.535156 83.417969 96.132812 85.464844 92.601562 C 88.175781 87.929688 89.621094 83.03125 89.800781 77.898438 C 89.800781 77.871094 89.808594 77.847656 89.824219 77.824219 C 89.832031 77.8125 89.839844 77.800781 89.847656 77.792969 C 89.886719 77.75 89.949219 77.734375 90.007812 77.753906 C 90.066406 77.773438 90.109375 77.820312 90.117188 77.878906 C 91.011719 83.316406 90.609375 88.597656 88.90625 93.714844 L 88.90625 93.71875 C 88.066406 96.050781 87.09375 98.171875 85.984375 100.085938 C 84.476562 102.683594 82.722656 104.894531 80.710938 106.71875 C 79.351562 108.277344 77.0625 110.164062 73.847656 112.371094 L 73.839844 112.375 C 72.230469 113.339844 70.5625 114.183594 68.84375 114.902344 C 63.898438 116.945312 58.46875 117.671875 52.554688 117.070312 L 52.550781 117.070312 C 47.179688 116.460938 42.046875 114.550781 37.140625 111.335938 C 35.609375 110.40625 33.445312 108.558594 30.644531 105.796875 C 30.042969 105.214844 29.285156 104.339844 28.367188 103.171875 C 28.335938 103.121094 28.332031 103.050781 28.363281 102.996094 Z M 70.085938 53.484375 C 71.039062 55.222656 71.882812 57.007812 72.628906 58.835938 C 73.109375 60.0625 73.460938 61.335938 73.695312 62.667969 C 73.917969 64.003906 73.972656 65.410156 73.855469 66.882812 L 73.140625 73.3125 C 73.085938 73.976562 73.066406 74.601562 73.085938 75.191406 C 73.09375 76.785156 73.613281 78.03125 74.644531 78.925781 C 76.867188 80.527344 79.878906 80.367188 83.671875 78.441406 C 84.890625 77.769531 85.871094 76.890625 86.609375 75.804688 C 86.964844 75.261719 87.21875 74.675781 87.363281 74.035156 L 87.480469 73.039062 L 87.394531 71.976562 L 87.085938 70.839844 L 86.539062 69.636719 L 85.761719 68.371094 C 85.167969 67.507812 84.453125 66.605469 83.613281 65.671875 C 81.613281 63.363281 77.742188 59.828125 71.992188 55.070312 L 70.085938 53.484375 M 53.535156 28.226562 L 53.515625 28.234375 C 52.117188 28.738281 51.046875 29.191406 50.304688 29.582031 C 46.804688 31.378906 44.371094 32.859375 43.007812 34.023438 C 38.425781 37.675781 35.015625 41.949219 32.78125 46.847656 C 30.390625 52.261719 29.410156 57.625 29.847656 62.9375 C 30.003906 64.789062 30.296875 66.625 30.726562 68.445312 L 30.730469 68.453125 C 31.851562 72.179688 32.949219 74.929688 34.023438 76.695312 C 35.980469 80.96875 39.28125 84.886719 43.929688 88.449219 L 43.933594 88.453125 C 48.308594 91.636719 53.234375 93.644531 58.710938 94.472656 C 58.726562 94.476562 58.746094 94.476562 58.765625 94.472656 C 58.792969 94.464844 58.824219 94.449219 58.847656 94.421875 C 58.882812 94.386719 58.898438 94.332031 58.886719 94.285156 C 58.875 94.230469 58.839844 94.1875 58.789062 94.167969 C 50.269531 91.09375 43.628906 84.550781 38.863281 74.53125 C 37.414062 70.585938 36.621094 67.789062 36.484375 66.140625 L 36.484375 66.132812 C 36.097656 63.4375 35.941406 61.210938 36 59.449219 C 36.125 54.574219 37.015625 50.089844 38.671875 45.984375 L 38.671875 45.980469 C 40.394531 41.378906 42.847656 37.574219 46.023438 34.566406 L 46.027344 34.5625 C 48.480469 32.113281 51.027344 30.101562 53.65625 28.515625 C 53.722656 28.476562 53.746094 28.394531 53.722656 28.324219 C 53.6875 28.253906 53.613281 28.210938 53.535156 28.226562 Z M 85.921875 40.242188 C 85.921875 40.246094 85.929688 40.246094 85.9375 40.246094 C 85.945312 40.246094 85.953125 40.246094 85.960938 40.246094 C 85.949219 40.242188 85.941406 40.242188 85.933594 40.242188 C 85.933594 40.242188 85.925781 40.242188 85.921875 40.242188 Z M 86.023438 40.273438 C 86.042969 40.289062 86.058594 40.300781 86.074219 40.304688 C 86.058594 40.289062 86.042969 40.277344 86.023438 40.273438 Z M 83.859375 36.730469 C 84.144531 36.9375 84.46875 37.324219 84.835938 37.890625 C 85.003906 38.128906 85.320312 38.800781 85.792969 39.898438 C 85.875 40.0625 85.941406 40.175781 85.996094 40.242188 C 86.050781 40.230469 86.125 40.210938 86.230469 40.179688 C 86.890625 39.941406 87.296875 39.804688 87.429688 39.777344 C 87.78125 39.6875 88.105469 39.632812 88.402344 39.613281 C 88.503906 39.597656 88.613281 39.589844 88.734375 39.589844 C 89.222656 39.589844 89.816406 39.710938 90.511719 39.957031 C 92.535156 40.796875 93.917969 42.011719 94.660156 43.589844 C 95.324219 45.035156 95.058594 46.851562 93.863281 49.035156 C 94.445312 49.292969 95.054688 49.570312 95.691406 49.871094 L 95.695312 49.875 C 97.339844 50.773438 98.90625 51.785156 100.386719 52.910156 C 104.632812 56.144531 107.972656 60.453125 110.40625 65.835938 C 112.554688 70.761719 113.457031 76.136719 113.109375 81.957031 C 113.066406 83.734375 112.542969 86.519531 111.535156 90.308594 C 111.332031 91.113281 110.953125 92.203125 110.398438 93.570312 C 110.394531 93.574219 110.394531 93.582031 110.390625 93.585938 C 110.378906 93.601562 110.367188 93.613281 110.347656 93.621094 C 110.339844 93.628906 110.324219 93.628906 110.3125 93.628906 C 110.296875 93.628906 110.277344 93.625 110.265625 93.617188 C 110.238281 93.601562 110.21875 93.574219 110.21875 93.546875 C 110.21875 93.539062 110.21875 93.53125 110.21875 93.523438 C 110.796875 90.511719 111 87.277344 110.824219 83.820312 L 110.824219 83.816406 C 110.707031 79.441406 109.507812 75.070312 107.226562 70.707031 L 107.226562 70.703125 C 105.277344 66.722656 102.519531 63.050781 98.960938 59.691406 C 97.683594 58.460938 95.914062 57.085938 93.644531 55.5625 L 93.640625 55.558594 C 92.3125 54.554688 89.691406 53.265625 85.777344 51.691406 C 81.175781 50.3125 76.820312 49.621094 72.714844 49.621094 C 67.285156 49.621094 62.28125 50.828125 57.714844 53.242188 C 57.699219 53.25 57.683594 53.253906 57.671875 53.253906 C 57.644531 53.253906 57.621094 53.242188 57.605469 53.226562 C 57.574219 53.195312 57.570312 53.152344 57.589844 53.113281 L 57.613281 53.089844 C 61.625 49.824219 66.085938 47.609375 70.996094 46.441406 C 70.589844 46.039062 70.085938 45.484375 69.492188 44.773438 C 68.824219 43.972656 68.300781 43.171875 67.917969 42.367188 C 67.332031 41.101562 67.378906 39.976562 68.058594 38.988281 C 68.714844 38.148438 69.675781 37.703125 70.949219 37.652344 C 70.992188 37.648438 71.039062 37.648438 71.09375 37.648438 C 71.496094 37.648438 72.023438 37.710938 72.683594 37.835938 L 76.125 38.683594 C 76.417969 38.730469 76.652344 38.753906 76.839844 38.753906 C 77.011719 38.753906 77.136719 38.734375 77.214844 38.691406 C 77.464844 38.558594 77.621094 38.441406 77.683594 38.339844 C 78.425781 37.1875 78.898438 36.542969 79.101562 36.414062 C 79.515625 36.035156 80.007812 35.8125 80.570312 35.734375 C 80.742188 35.714844 80.914062 35.707031 81.085938 35.707031 C 82.058594 35.703125 82.988281 36.042969 83.859375 36.730469 Z M 77.066406 43.425781 C 75.707031 43.425781 74.605469 44.519531 74.605469 45.875 C 74.605469 47.230469 75.707031 48.324219 77.066406 48.324219 C 78.429688 48.324219 79.53125 47.230469 79.53125 45.875 C 79.53125 44.523438 78.429688 43.425781 77.066406 43.425781 Z M 77.066406 43.425781 " fill-opacity="1" fill-rule="nonzero"/></g><g fill="#d11930" fill-opacity="1"><g transform="translate(146.145121, 107.469158)"><g><path d="M 30.09375 -57.1875 C 36.601562 -57.1875 41.765625 -55.046875 45.578125 -50.765625 C 48.859375 -47.015625 50.5 -42.644531 50.5 -37.65625 C 50.5 -32.789062 48.972656 -28.539062 45.921875 -24.90625 C 42.109375 -20.445312 36.773438 -18.21875 29.921875 -18.21875 L 16.359375 -18.21875 L 16.359375 0 L 2.640625 0 L 2.640625 -57.1875 Z M 36.515625 -32.8125 C 37.097656 -33.519531 37.535156 -34.34375 37.828125 -35.28125 C 38.066406 -36.101562 38.1875 -36.894531 38.1875 -37.65625 C 38.1875 -38.414062 38.039062 -39.238281 37.75 -40.125 C 37.394531 -41.0625 36.925781 -41.878906 36.34375 -42.578125 C 34.988281 -44.109375 32.90625 -44.875 30.09375 -44.875 L 16.359375 -44.875 L 16.359375 -30.53125 L 29.921875 -30.53125 C 31.734375 -30.53125 33.253906 -30.796875 34.484375 -31.328125 C 35.304688 -31.796875 35.984375 -32.289062 36.515625 -32.8125 Z M 36.515625 -32.8125 "/></g></g></g><g fill="#d11930" fill-opacity="1"><g transform="translate(199.287647, 107.469158)"><g><path d="M 23.484375 -45.3125 C 29.765625 -45.375 35.101562 -43.203125 39.5 -38.796875 C 43.957031 -34.335938 46.1875 -29 46.1875 -22.78125 C 46.25 -16.507812 44.082031 -11.175781 39.6875 -6.78125 C 35.28125 -2.320312 29.96875 -0.0625 23.75 0 C 17.476562 0.0625 12.113281 -2.109375 7.65625 -6.515625 C 3.195312 -10.910156 0.96875 -16.25 0.96875 -22.53125 C 0.90625 -28.800781 3.078125 -34.132812 7.484375 -38.53125 C 11.878906 -42.988281 17.210938 -45.25 23.484375 -45.3125 Z M 31.5 -14.78125 C 33.664062 -16.945312 34.75 -19.585938 34.75 -22.703125 C 34.75 -25.753906 33.632812 -28.394531 31.40625 -30.625 C 29.175781 -32.726562 26.535156 -33.78125 23.484375 -33.78125 C 20.441406 -33.78125 17.832031 -32.695312 15.65625 -30.53125 C 13.488281 -28.238281 12.40625 -25.597656 12.40625 -22.609375 C 12.40625 -19.554688 13.519531 -16.914062 15.75 -14.6875 C 17.914062 -12.519531 20.554688 -11.4375 23.671875 -11.4375 C 26.835938 -11.550781 29.445312 -12.664062 31.5 -14.78125 Z M 31.5 -14.78125 "/></g></g></g><g fill="#d11930" fill-opacity="1"><g transform="translate(246.447248, 107.469158)"><g><path d="M 2.640625 -45.484375 L 14.078125 -45.484375 L 14.078125 -22.609375 C 14.078125 -21.734375 14.222656 -20.738281 14.515625 -19.625 C 14.867188 -18.269531 15.394531 -17.035156 16.09375 -15.921875 C 18.03125 -12.992188 20.789062 -11.53125 24.375 -11.53125 C 28.300781 -11.53125 31.144531 -13.023438 32.90625 -16.015625 C 33.550781 -17.066406 34.019531 -18.296875 34.3125 -19.703125 C 34.550781 -20.703125 34.671875 -21.703125 34.671875 -22.703125 L 34.671875 -45.484375 L 46.984375 -45.484375 L 46.984375 0 L 34.671875 0 L 34.671875 -4.75 C 31.796875 -1.582031 28.097656 0 23.578125 0 C 17.773438 0.0625 12.847656 -2.019531 8.796875 -6.25 C 4.691406 -10.414062 2.640625 -15.578125 2.640625 -21.734375 Z M 2.640625 -45.484375 "/></g></g></g><g fill="#d11930" fill-opacity="1"><g transform="translate(296.070406, 107.469158)"><g><path d="M 14.953125 -61.15625 L 14.953125 0 L 2.640625 0 L 2.640625 -61.15625 Z M 14.953125 -61.15625 "/></g></g></g><g fill="#d11930" fill-opacity="1"><g transform="translate(313.667275, 107.469158)"><g><path d="M 35.28125 -45.3125 L 35.28125 -33 L 25.15625 -33 L 25.15625 0 L 12.84375 0 L 12.84375 -33 L 2.640625 -33 L 2.640625 -45.3125 L 12.84375 -45.3125 L 12.84375 -61.15625 L 25.15625 -61.15625 L 25.15625 -45.3125 Z M 35.28125 -45.3125 "/></g></g></g><g fill="#d11930" fill-opacity="1"><g transform="translate(351.58853, 107.469158)"><g><path d="M 14.953125 -38.53125 C 15.953125 -41.351562 17.625 -43.320312 19.96875 -44.4375 C 22.257812 -45.550781 25.691406 -46.109375 30.265625 -46.109375 L 30.265625 -33.515625 C 25.804688 -33.515625 22.082031 -31.992188 19.09375 -28.953125 C 16.332031 -26.253906 14.953125 -23.289062 14.953125 -20.0625 L 14.953125 0 L 2.640625 0 L 2.640625 -45.3125 L 14.953125 -45.3125 Z M 14.953125 -38.53125 "/></g></g></g><g fill="#d11930" fill-opacity="1"><g transform="translate(383.174908, 107.469158)"><g><path d="M 45.3125 -45.40625 L 27.453125 2.03125 C 25.515625 6.71875 22.4375 10.441406 18.21875 13.203125 C 13.988281 15.953125 9.382812 17.269531 4.40625 17.15625 L 4.40625 4.84375 C 6.21875 4.894531 8.035156 4.515625 9.859375 3.703125 C 12.429688 2.523438 14.363281 0.675781 15.65625 -1.84375 L 18.125 -8.625 L 2.640625 -45.40625 L 16.1875 -45.40625 L 24.375 -25.609375 L 31.671875 -45.40625 Z M 45.3125 -45.40625 "/></g></g></g><g fill="#d11930" fill-opacity="1"><g transform="translate(431.214342, 107.469158)"><g><path d="M 30.09375 -57.1875 C 36.601562 -57.1875 41.765625 -55.046875 45.578125 -50.765625 C 48.859375 -47.015625 50.5 -42.644531 50.5 -37.65625 C 50.5 -32.789062 48.972656 -28.539062 45.921875 -24.90625 C 42.109375 -20.445312 36.773438 -18.21875 29.921875 -18.21875 L 16.359375 -18.21875 L 16.359375 0 L 2.640625 0 L 2.640625 -57.1875 Z M 36.515625 -32.8125 C 37.097656 -33.519531 37.535156 -34.34375 37.828125 -35.28125 C 38.066406 -36.101562 38.1875 -36.894531 38.1875 -37.65625 C 38.1875 -38.414062 38.039062 -39.238281 37.75 -40.125 C 37.394531 -41.0625 36.925781 -41.878906 36.34375 -42.578125 C 34.988281 -44.109375 32.90625 -44.875 30.09375 -44.875 L 16.359375 -44.875 L 16.359375 -30.53125 L 29.921875 -30.53125 C 31.734375 -30.53125 33.253906 -30.796875 34.484375 -31.328125 C 35.304688 -31.796875 35.984375 -32.289062 36.515625 -32.8125 Z M 36.515625 -32.8125 "/></g></g></g><g fill="#d11930" fill-opacity="1"><g transform="translate(484.356879, 107.469158)"><g><path d="M 35.1875 -45.484375 L 47.515625 -45.484375 L 47.515625 0 L 35.1875 0 L 35.1875 -5.109375 C 32.664062 -1.816406 28.851562 -0.171875 23.75 -0.171875 C 17.53125 -0.117188 12.195312 -2.289062 7.75 -6.6875 C 3.289062 -11.082031 1.03125 -16.421875 0.96875 -22.703125 C 0.90625 -28.921875 3.078125 -34.257812 7.484375 -38.71875 C 11.878906 -43.175781 17.210938 -45.429688 23.484375 -45.484375 C 28.648438 -45.484375 32.550781 -43.8125 35.1875 -40.46875 Z M 31.5 -14.953125 C 33.664062 -17.128906 34.75 -19.769531 34.75 -22.875 C 34.75 -26.039062 33.632812 -28.679688 31.40625 -30.796875 C 29.175781 -33.023438 26.566406 -34.082031 23.578125 -33.96875 C 20.472656 -33.96875 17.832031 -32.878906 15.65625 -30.703125 C 13.488281 -28.535156 12.40625 -25.894531 12.40625 -22.78125 C 12.40625 -19.738281 13.519531 -17.101562 15.75 -14.875 C 17.914062 -12.695312 20.554688 -11.609375 23.671875 -11.609375 C 26.835938 -11.734375 29.445312 -12.847656 31.5 -14.953125 Z M 31.5 -14.953125 "/></g></g></g><g fill="#d11930" fill-opacity="1"><g transform="translate(534.507953, 107.469158)"><g><path d="M 14.953125 -61.15625 L 14.953125 0 L 2.640625 0 L 2.640625 -61.15625 Z M 14.953125 -61.15625 "/></g></g></g></svg>